<svg id="Assets_logo_main" data-name="Assets/logo/main" xmlns="http://www.w3.org/2000/svg" width="125.013" height="40" viewBox="0 0 125.013 40">
  <path id="Shape" d="M23.84,0V23.365H17.9V10.781l-5.675,9.378h-.58L5.982,10.816V23.365H0V0H5.97l5.953,10L17.9.023Z" transform="translate(49.847 1.009)" fill="#1b3c71"/>
  <path id="Shape-2" data-name="Shape" d="M12.172,24.345A12.172,12.172,0,0,1,12.172,0a11.853,11.853,0,0,1,5.872,1.5,11.245,11.245,0,0,1,4.243,4.057L17.14,8.492a4.84,4.84,0,0,0-1.982-1.953A6.127,6.127,0,0,0,12.2,5.826,6.034,6.034,0,0,0,7.68,7.565a6.955,6.955,0,0,0,0,9.175,6.6,6.6,0,0,0,7.477,1.038A4.782,4.782,0,0,0,17.14,15.8l5.176,3.008a11.094,11.094,0,0,1-4.225,4.057,11.946,11.946,0,0,1-5.918,1.478Z" transform="translate(76.759 0.527)" fill="#1b3c71"/>
  <path id="Shape-3" data-name="Shape" d="M23.834,0V23.365H17.893V10.781l-5.675,9.378h-.58L5.976,10.816V23.365H0V0H5.976l5.941,10L17.893.023Z" transform="translate(101.179 1.009)" fill="#1b3c71"/>
  <path id="Shape-4" data-name="Shape" d="M19.147,0C16.579,3.628,11.1,4.431,4,1.779A36.667,36.667,0,0,1,0,0Z" transform="translate(1.3)" fill="#1b3c71"/>
  <path id="Shape-5" data-name="Shape" d="M9.837,0V20.285C.342,13.836-2.662,6.686,2.51,2.67A15.479,15.479,0,0,1,9.837,0Z" transform="translate(29.055 9.149)" fill="#1b3c71"/>
  <path id="Shape-6" data-name="Shape" d="M12.9,0V5.867a18.966,18.966,0,0,1-3.507.479C4.236,6.539.96,4.154,0,0Z" transform="translate(25.995)" fill="#50b4c3"/>
  <path id="Shape-7" data-name="Shape" d="M14.194,9.9C13.243,14.956,7.812,20.685,0,25.309V0C9.658-.036,15.338,3.787,14.194,9.9Z" transform="translate(0 4.341)" fill="#1b3c71"/>
  <path id="Shape-8" data-name="Shape" d="M24.656,22.382H0A62.377,62.377,0,0,1,4.215,11.846C9.718,1.207,16.558-2.812,20.932,2.038,24.141,5.6,25.448,13.3,24.656,22.382Z" transform="translate(4.747 17.612)" fill="#1b3c71"/>
  <path id="Shape-9" data-name="Shape" d="M3.113,8.806a3.553,3.553,0,0,1-2-.58A2.678,2.678,0,0,1,0,6.777l.58-.325A2.278,2.278,0,0,0,1.466,7.7a2.8,2.8,0,0,0,1.669.458,2.394,2.394,0,0,0,1.588-.469A1.565,1.565,0,0,0,5.3,6.464,1.252,1.252,0,0,0,4.77,5.381,6.613,6.613,0,0,0,3.1,4.639l-.58-.22-.539-.2a2.77,2.77,0,0,1-.527-.238c-.116-.075-.249-.168-.406-.29A1.455,1.455,0,0,1,.7,3.323a2.353,2.353,0,0,1-.2-.452,1.988,1.988,0,0,1-.081-.58A2.069,2.069,0,0,1,1.159.628,2.73,2.73,0,0,1,3,0,2.844,2.844,0,0,1,5.732,1.793l-.545.3A2.2,2.2,0,0,0,3,.622a2.04,2.04,0,0,0-1.4.464,1.5,1.5,0,0,0-.522,1.159,1.159,1.159,0,0,0,.487,1.032,6.242,6.242,0,0,0,1.594.707l1.1.412a4.562,4.562,0,0,1,.852.435,1.814,1.814,0,0,1,.667.678,2.034,2.034,0,0,1,.2.922,2.092,2.092,0,0,1-.765,1.692,3.049,3.049,0,0,1-2.1.684Z" transform="translate(49.847 31.188)" fill="#1b3c71"/>
  <path id="Shape-10" data-name="Shape" d="M6.828,0l-3.1,5.008V8.486H3.1V5.008L0,0H.73l2.7,4.388L6.115,0Z" transform="translate(60.408 31.329)" fill="#1b3c71"/>
  <path id="Shape-11" data-name="Shape" d="M3.113,8.8a3.553,3.553,0,0,1-2-.539A2.626,2.626,0,0,1,0,6.794L.58,6.47a2.272,2.272,0,0,0,.881,1.252,2.834,2.834,0,0,0,1.675.458A2.376,2.376,0,0,0,4.718,7.71a1.548,1.548,0,0,0,.556-1.229A1.24,1.24,0,0,0,4.736,5.4a6.463,6.463,0,0,0-1.664-.742l-.58-.22-.545-.2A2.532,2.532,0,0,1,1.426,4c-.116-.075-.249-.168-.412-.29A1.327,1.327,0,0,1,.672,3.34a2.353,2.353,0,0,1-.2-.452,1.808,1.808,0,0,1-.087-.58A2.087,2.087,0,0,1,1.124.644,2.753,2.753,0,0,1,2.956,0a2.9,2.9,0,0,1,1.7.5A2.962,2.962,0,0,1,5.692,1.792l-.545.3A2.2,2.2,0,0,0,2.956.621a2.029,2.029,0,0,0-1.4.464,1.5,1.5,0,0,0-.522,1.159,1.159,1.159,0,0,0,.487,1.032,6.185,6.185,0,0,0,1.588.707l1.1.412a4.6,4.6,0,0,1,.858.435,1.837,1.837,0,0,1,.661.678,1.965,1.965,0,0,1,.209.922A2.092,2.092,0,0,1,5.17,8.122,3.049,3.049,0,0,1,3.113,8.8Z" transform="translate(71.815 31.194)" fill="#1b3c71"/>
  <path id="Shape-12" data-name="Shape" d="M6,0V.58H3.327v7.9H2.672V.609H0V.029Z" transform="translate(82.596 31.329)" fill="#1b3c71"/>
  <path id="Shape-13" data-name="Shape" d="M.643,7.9H4.9v.58H0V0H4.834V.58H.643v3.31H4.533v.58H.643Z" transform="translate(94.316 31.329)" fill="#1b3c71"/>
  <path id="Shape-14" data-name="Shape" d="M7.7,0V8.509H7.054V.974L3.907,6.19H3.8L.649.974V8.509H0V0H.811L3.849,5.043,6.886,0Z" transform="translate(105.167 31.329)" fill="#1b3c71"/>
  <path id="Shape-15" data-name="Shape" d="M3.113,8.783a3.553,3.553,0,0,1-2-.539A2.626,2.626,0,0,1,0,6.777l.58-.325A2.272,2.272,0,0,0,1.461,7.7a2.834,2.834,0,0,0,1.675.458,2.376,2.376,0,0,0,1.582-.469A1.548,1.548,0,0,0,5.3,6.464a1.24,1.24,0,0,0-.539-1.084A6.463,6.463,0,0,0,3.1,4.639l-.58-.22-.545-.2a2.532,2.532,0,0,1-.522-.238c-.116-.075-.249-.168-.406-.29A1.275,1.275,0,0,1,.7,3.323a2.353,2.353,0,0,1-.2-.452,1.808,1.808,0,0,1-.081-.58A2.087,2.087,0,0,1,1.148.628,2.753,2.753,0,0,1,2.991,0a2.9,2.9,0,0,1,1.7.5A2.962,2.962,0,0,1,5.727,1.793l-.545.3A2.2,2.2,0,0,0,2.991.622a2.029,2.029,0,0,0-1.4.464,1.5,1.5,0,0,0-.522,1.159,1.159,1.159,0,0,0,.487,1.032,6.283,6.283,0,0,0,1.588.707c.469.174.835.307,1.1.412A4.6,4.6,0,0,1,5.1,4.83a1.8,1.8,0,0,1,.661.678,1.965,1.965,0,0,1,.209.922,2.092,2.092,0,0,1-.765,1.692,3.049,3.049,0,0,1-2.092.661Z" transform="translate(118.724 31.211)" fill="#1b3c71"/>
</svg>
